<?xml version="1.0" standalone="no"?>
<!DOCTYPE svg PUBLIC "-//W3C//DTD SVG 20010904//EN"
 "http://www.w3.org/TR/2001/REC-SVG-20010904/DTD/svg10.dtd">
<svg version="1.0" xmlns="http://www.w3.org/2000/svg"
 width="300.000000pt" height="301.000000pt" viewBox="0 0 300.000000 301.000000"
 preserveAspectRatio="xMidYMid meet">
<metadata>
Created by potrace 1.10, written by Peter Selinger 2001-2011
</metadata>
<g transform="translate(0.000000,301.000000) scale(0.100000,-0.100000)"
fill="white" stroke="none">
<path d="M506 2770 c-104 -42 -176 -146 -176 -256 0 -33 27 -247 60 -475 l61
-414 -16 -70 c-9 -38 -19 -122 -22 -186 -21 -428 218 -835 602 -1023 599 -295
1302 -1 1521 636 56 165 69 405 29 571 -15 66 -15 73 14 270 17 111 44 299 62
417 37 254 39 319 12 381 -46 104 -131 161 -249 167 -56 3 -81 0 -117 -16 -26
-11 -166 -102 -312 -201 l-265 -180 -52 9 c-61 12 -253 12 -323 1 l-50 -9
-262 179 c-144 97 -276 185 -295 195 -51 27 -162 29 -222 4z m244 -63 c36 -21
133 -84 215 -142 83 -57 186 -127 230 -155 l80 -51 100 7 c123 10 127 10 251
0 l102 -7 226 153 c349 236 340 231 418 236 78 5 127 -9 173 -50 45 -39 72
-83 84 -141 11 -44 7 -90 -23 -287 -3 -19 -17 -114 -31 -211 -13 -97 -27 -182
-29 -190 -3 -8 -7 -39 -10 -69 -3 -30 -10 -78 -14 -107 -10 -59 -7 -113 11
-163 7 -22 11 -100 11 -205 1 -155 -2 -179 -27 -270 -34 -122 -108 -277 -175
-365 -127 -167 -311 -300 -497 -360 -38 -12 -79 -26 -90 -31 -34 -14 -172 -29
-268 -29 -201 1 -409 66 -576 179 -160 109 -320 303 -376 456 -10 28 -22 55
-25 60 -4 6 -10 21 -13 35 -3 14 -13 52 -22 85 -22 81 -28 325 -10 420 19 100
18 174 -6 326 -11 74 -24 166 -29 204 -6 39 -19 129 -30 200 -11 72 -23 175
-26 230 -6 94 -5 104 19 150 48 95 122 138 227 133 54 -3 76 -10 130 -41z"/>
<path d="M2345 2668 c-16 -6 -70 -38 -118 -70 -49 -32 -92 -58 -97 -58 -5 0
-10 -4 -12 -8 -1 -5 -52 -43 -113 -84 -60 -41 -145 -99 -187 -128 l-78 -53
-70 12 c-86 16 -241 16 -330 2 -351 -58 -657 -322 -764 -661 -37 -115 -41
-151 -40 -320 1 -137 4 -165 28 -245 100 -332 352 -579 691 -677 70 -20 101
-23 250 -22 155 0 178 3 258 27 308 94 539 311 651 612 58 153 71 340 38 520
-10 56 -17 114 -15 130 2 17 28 203 58 415 30 212 57 404 61 428 15 112 -109
218 -211 180z m124 -45 c14 -11 35 -37 45 -58 l19 -38 -67 -461 c-65 -456 -66
-462 -50 -516 22 -76 30 -282 14 -376 -58 -364 -331 -668 -685 -766 -116 -32
-374 -32 -490 0 -184 51 -372 176 -490 325 -381 480 -217 1183 336 1441 113
52 184 72 309 86 95 11 252 0 306 -20 18 -7 64 20 295 177 351 239 345 235
393 229 22 -2 51 -13 65 -23z"/>
<path d="M945 1766 c-56 -25 -105 -101 -105 -163 1 -40 33 -106 64 -131 120
-94 286 -12 286 140 -1 120 -133 204 -245 154z m157 -42 c37 -27 48 -49 54
-102 6 -55 -15 -104 -58 -136 -35 -25 -110 -26 -157 -1 -42 21 -75 92 -66 138
12 60 17 68 58 98 37 27 49 30 93 27 29 -3 61 -13 76 -24z"/>
<path d="M1838 1760 c-50 -27 -80 -73 -86 -131 -6 -66 2 -93 44 -139 56 -61
127 -75 202 -39 85 41 122 153 79 236 -43 82 -158 117 -239 73z m170 -36 c34
-23 65 -97 56 -137 -16 -77 -52 -111 -130 -122 -49 -7 -100 17 -131 64 -50 75
-13 183 72 213 30 10 105 0 133 -18z"/>
<path d="M1041 1249 c-26 -28 -45 -118 -36 -172 16 -96 80 -182 165 -220 64
-29 171 -29 227 0 36 19 43 20 61 7 12 -8 45 -19 75 -25 194 -39 368 139 327
335 -14 70 -38 96 -85 96 -47 0 -79 -34 -70 -75 3 -16 9 -49 12 -71 14 -116
-119 -188 -212 -114 -47 38 -87 39 -133 4 -43 -34 -107 -42 -149 -20 -60 30
-92 122 -62 178 13 24 5 60 -17 82 -23 23 -79 20 -103 -5z m84 -99 c0 -95 15
-131 69 -172 47 -34 130 -32 182 5 22 15 49 27 59 27 10 0 37 -12 59 -27 79
-56 187 -29 235 58 23 40 27 95 10 132 -15 33 3 67 36 67 57 0 81 -152 38
-236 -64 -122 -201 -170 -334 -117 -34 13 -43 12 -110 -8 -66 -20 -79 -21
-133 -10 -142 30 -227 160 -195 301 13 56 26 72 58 68 26 -3 26 -4 26 -88z"/>
<path d="M535 2651 c-40 -24 -61 -49 -80 -94 -14 -33 -13 -48 6 -179 11 -79
27 -192 35 -253 21 -162 33 -218 47 -232 17 -17 11 44 -38 383 -40 273 -39
284 24 337 25 21 43 27 79 27 44 0 62 -10 269 -147 122 -82 222 -151 222 -154
1 -3 -24 -16 -54 -28 -71 -29 -192 -108 -268 -175 -87 -75 -220 -246 -205
-262 5 -4 34 23 58 53 8 10 35 44 58 75 74 96 189 189 332 266 90 48 101 59
88 87 -5 12 -44 45 -86 73 -43 29 -130 88 -196 132 -65 44 -131 87 -147 95
-39 21 -108 19 -144 -4z"/>
</g>
</svg>
