 <svg version="1.0" xmlns="http://www.w3.org/2000/svg"  width="300.000000pt" height="301.000000pt" viewBox="0 0 300.000000 301.000000"  preserveAspectRatio="xMidYMid meet">  <g transform="translate(0.000000,301.000000) scale(0.100000,-0.100000)" fill="#000000" stroke="none"> 
 <path d="M0 1505 l0 -1505 1500 0 1500 0 0 1505 0 1505 -1500 0 -1500 0 0 -1505z m661 1130 c19 -8 63 -36 99 -60 36 -25 72 -50 80 -55 8 -6 58 -40 110 -76 52 -36 110 -75 129 -87 22 -14 29 -22 20 -25 -148 -46 -390 -237 -491 -390 -44 -65 -58 -66 -58 -5 0 18 -4 54 -10 80 -5 26 -12 68 -14 93 -2 25 -8 72 -14 105 -54 310 -48 370 37 415 44 23 69 24 112 5z m1800 -8 c19 -12 42 -38 52 -57 21 -40 19 -78 -15 -295 -10 -71 -21 -148 -24 -170 -2 -22 -8 -65 -13 -95 -6 -30 -15 -95 -21 -145 -7 -49 -19 -127 -27 -173 -12 -67 -12 -90 -2 -120 7 -20 13 -46 15 -57 1 -11 8 -58 14 -104 28 -191 -36 -441 -162 -627 -42 -63 -179 -200 -242 -242 -54 -37 -206 -115 -206 -107 0 3 -10 1 -21 -6 -118 -63 -500 -63 -618 0 -11 7 -21 9 -21 6 0 -8 -152 70 -206 107 -68 46 -205 185 -248 252 -126 197 -184 427 -156 617 6 46 14 95 15 109 18 127 132 339 247 460 118 124 327 241 473 266 17 2 54 9 84 14 71 13 175 13 242 0 117 -23 117 -23 188 22 36 23 68 45 71 48 3 3 59 41 125 86 66 44 165 111 219 148 55 37 109 72 120 76 38 15 82 10 117 -13z"/> 
 <path d="M563 2606 c-57 -26 -75 -93 -53 -203 5 -26 12 -68 15 -93 21 -162 25 -197 29 -215 2 -11 7 -44 11 -72 8 -58 16 -64 43 -31 97 121 251 250 381 321 29 15 49 32 46 37 -6 9 -232 165 -337 232 -54 35 -94 42 -135 24z"/> 
 <path d="M2336 2604 c-9 -8 -16 -13 -16 -9 0 3 -30 -16 -67 -42 -38 -26 -113 -77 -168 -115 -136 -92 -149 -102 -153 -110 -2 -5 -8 -8 -14 -8 -6 0 -40 -21 -77 -47 -74 -53 -65 -52 -292 -38 -83 5 -147 4 -191 -4 -67 -11 -188 -48 -243 -72 -55 -25 -155 -90 -155 -101 0 -6 -3 -9 -6 -5 -14 13 -156 -129 -213 -213 -39 -57 -100 -180 -119 -240 -23 -71 -42 -198 -42 -282 0 -136 24 -242 85 -374 108 -233 269 -385 510 -482 111 -45 174 -55 330 -55 132 1 160 4 238 27 243 72 429 216 550 425 64 109 106 236 125 376 8 63 -7 238 -27 310 -13 49 -14 126 -1 182 10 41 33 187 50 318 10 72 35 249 46 320 21 137 21 151 9 181 -26 64 -119 98 -159 58z m-1239 -819 c73 -31 113 -92 113 -175 0 -121 -88 -205 -204 -197 -166 12 -244 205 -132 326 17 18 45 39 61 47 41 18 118 17 162 -1z m939 -18 c52 -35 77 -89 76 -162 0 -70 -26 -122 -77 -157 -91 -64 -233 -33 -282 61 -40 78 -27 188 28 237 48 43 81 54 149 51 51 -2 74 -9 106 -30z m-885 -490 c31 -24 38 -52 32 -128 -5 -70 -4 -77 19 -102 14 -15 40 -32 57 -38 29 -10 39 -8 94 21 71 37 115 37 167 -1 41 -31 102 -30 135 1 35 33 49 83 36 122 -18 50 -13 78 18 109 32 31 71 38 115 18 62 -28 83 -196 36 -293 -65 -135 -216 -202 -366 -161 -61 17 -68 17 -126 0 -102 -28 -212 -5 -289 63 -102 90 -129 281 -53 372 21 25 33 30 67 30 23 0 49 -6 58 -13z"/> 
 <path d="M952 1767 c-18 -5 -46 -25 -62 -43 -68 -78 -62 -172 16 -244 41 -38 47 -40 104 -40 72 0 109 17 146 66 36 46 44 125 19 174 -42 82 -131 117 -223 87z"/> 
 <path d="M1840 1757 c-99 -52 -120 -199 -38 -273 38 -35 63 -44 122 -44 102 0 160 57 165 163 3 74 -26 124 -91 156 -57 27 -104 27 -158 -2z"/> 
 <path d="M1047 1252 c-26 -29 -37 -70 -37 -143 0 -137 88 -241 225 -268 30 -6 66 -6 88 -1 20 4 37 6 37 4 0 -3 17 4 38 15 34 17 40 18 66 4 15 -8 40 -17 55 -19 14 -2 36 -6 48 -9 28 -6 106 12 153 36 110 55 169 201 132 324 -17 57 -24 65 -63 71 -25 4 -41 1 -58 -13 -24 -20 -25 -25 -15 -130 6 -61 6 -61 -35 -102 -37 -37 -46 -41 -90 -41 -39 0 -56 6 -86 30 -42 33 -94 40 -116 14 -39 -48 -126 -58 -180 -21 -57 39 -66 74 -46 191 10 59 -76 102 -116 58z"/> 
 </g> 
 </svg> 