 <svg version="1.0" xmlns="http://www.w3.org/2000/svg"  width="900.000000pt" height="903.000000pt" viewBox="0 0 900.000000 903.000000"  preserveAspectRatio="xMidYMid meet">  
 <g transform="translate(0.000000,903.000000) scale(0.100000,-0.100000)" fill="#000000" stroke="none"> 
 <path d="M7065 8364 c-129 -14 -282 -73 -408 -158 -34 -24 -107 -73 -162 -111 -55 -37 -197 -133 -315 -213 -211 -143 -422 -286 -570 -387 -41 -28 -167 -114 -279 -190 l-205 -138 -65 12 c-220 36 -296 42 -565 42 -264 0 -417 -11 -569 -41 -74 -15 -85 -13 -140 28 -28 20 -59 42 -69 47 -9 6 -56 37 -103 70 -48 33 -97 67 -110 75 -13 8 -97 65 -187 126 -90 61 -233 158 -318 215 -85 58 -190 130 -233 160 -43 30 -86 59 -95 64 -10 6 -33 21 -52 35 -19 14 -42 30 -51 35 -10 6 -88 58 -176 116 -138 93 -184 119 -278 160 -101 45 -333 62 -461 35 -319 -68 -551 -280 -651 -596 -24 -77 -27 -99 -27 -240 0 -100 6 -189 17 -250 9 -52 23 -147 32 -210 9 -63 22 -155 30 -205 8 -49 21 -142 30 -205 9 -63 22 -158 30 -210 28 -185 44 -296 60 -415 9 -66 23 -158 30 -205 8 -47 17 -107 20 -135 3 -27 10 -77 15 -110 5 -33 16 -109 25 -170 9 -60 20 -137 25 -170 51 -332 55 -383 37 -442 -8 -26 -22 -86 -32 -133 -9 -47 -23 -114 -30 -150 -27 -131 -40 -310 -40 -550 0 -297 10 -398 71 -700 23 -110 86 -330 120 -415 9 -22 23 -58 31 -80 40 -103 102 -237 172 -367 44 -82 51 -95 99 -166 23 -35 42 -65 42 -67 0 -5 90 -134 125 -179 277 -358 609 -649 983 -864 88 -50 329 -167 407 -197 39 -14 86 -33 105 -41 124 -50 400 -121 575 -148 416 -64 654 -64 1070 0 167 26 390 81 483 120 18 8 39 14 47 14 8 0 29 6 47 14 18 8 88 37 155 66 235 97 505 250 673 380 244 188 388 325 570 540 75 87 180 228 215 288 6 9 28 44 50 77 22 33 45 69 50 80 6 11 31 56 55 100 56 104 54 100 85 170 56 125 62 141 80 185 9 25 22 56 27 70 40 101 98 305 123 430 9 47 23 114 30 150 55 268 55 801 -1 1090 -33 172 -47 237 -60 279 -18 56 -18 86 0 186 8 44 22 134 31 200 9 66 22 158 30 205 7 47 21 141 30 210 9 69 22 161 30 205 8 44 16 100 19 125 2 25 9 77 15 115 6 39 18 120 26 180 9 61 22 151 30 200 8 50 21 144 30 210 9 66 22 158 30 205 7 47 21 139 30 205 9 66 24 163 33 215 12 68 17 148 16 280 0 177 -2 188 -28 255 -15 39 -31 82 -36 97 -15 48 -115 191 -174 250 -103 102 -244 183 -380 218 -71 19 -245 32 -321 24z m-5159 -480 c68 -14 91 -25 221 -112 80 -53 155 -104 168 -112 13 -8 82 -55 155 -105 72 -49 142 -97 155 -105 13 -8 59 -39 102 -69 151 -105 315 -216 377 -256 35 -22 79 -53 99 -68 20 -15 41 -27 47 -27 29 0 0 -34 -45 -52 -46 -19 -109 -48 -145 -67 -8 -4 -31 -16 -50 -26 -117 -60 -167 -88 -196 -110 -18 -14 -35 -25 -39 -25 -12 0 -165 -103 -165 -111 0 -5 -5 -9 -10 -9 -14 0 -110 -72 -110 -82 0 -4 -5 -8 -11 -8 -7 0 -31 -17 -54 -37 -23 -21 -75 -67 -116 -103 -127 -111 -215 -205 -401 -430 -41 -49 -78 -99 -78 -104 0 -4 -10 -17 -21 -29 -12 -12 -27 -35 -35 -52 -7 -16 -23 -41 -34 -55 -17 -21 -21 -23 -30 -10 -5 8 -10 35 -10 60 0 25 -7 70 -15 100 -8 30 -15 73 -15 95 0 22 -5 56 -10 75 -6 19 -15 80 -20 134 -11 108 -23 185 -46 286 -8 36 -14 84 -14 107 0 44 -37 308 -46 333 -4 8 -10 49 -14 90 -15 137 -40 315 -50 344 -6 16 -10 83 -10 150 1 116 2 123 33 183 57 109 134 174 242 204 78 22 100 22 191 3z m5385 -1 c79 -23 170 -104 219 -195 34 -62 34 -65 34 -183 0 -66 -6 -142 -12 -170 -12 -47 -34 -203 -52 -360 -4 -38 -13 -95 -19 -125 -20 -99 -41 -255 -41 -302 0 -26 -5 -59 -11 -75 -6 -15 -14 -57 -19 -93 -26 -207 -32 -254 -46 -340 -8 -52 -21 -133 -29 -180 -16 -92 -33 -224 -45 -335 -4 -38 -12 -92 -18 -120 -18 -80 -42 -259 -42 -315 0 -28 -4 -60 -10 -70 -5 -10 -15 -64 -21 -120 -10 -92 -9 -108 9 -168 11 -37 28 -105 37 -152 9 -47 21 -103 27 -125 19 -75 28 -190 34 -440 6 -246 -3 -423 -27 -525 -24 -101 -49 -227 -49 -250 0 -14 -7 -34 -15 -44 -8 -11 -15 -32 -15 -46 0 -14 -4 -30 -8 -35 -5 -6 -19 -44 -32 -85 -13 -41 -29 -86 -35 -100 -7 -14 -21 -45 -31 -70 -76 -193 -278 -532 -393 -660 -22 -25 -41 -49 -41 -54 0 -11 -367 -376 -379 -376 -4 0 -21 -11 -37 -25 -36 -32 -206 -148 -294 -202 -61 -37 -182 -100 -292 -152 -26 -12 -50 -26 -53 -32 -4 -5 -17 -9 -29 -9 -13 0 -54 -13 -92 -29 -38 -16 -96 -37 -129 -46 -33 -9 -80 -23 -105 -30 -114 -34 -159 -45 -181 -45 -13 0 -60 -6 -104 -14 -276 -50 -523 -61 -725 -30 -259 38 -399 65 -475 90 -22 7 -67 20 -100 30 -104 29 -261 91 -370 147 -135 69 -198 102 -237 125 -58 34 -243 163 -282 197 -16 14 -33 25 -37 25 -10 0 -369 356 -384 381 -5 9 -31 43 -58 75 -59 74 -184 260 -227 339 -64 117 -76 141 -93 180 -9 22 -21 47 -26 55 -9 15 -63 146 -86 210 -27 77 -74 239 -90 315 -9 44 -23 107 -30 140 -15 64 -19 105 -34 336 -13 187 8 540 37 654 21 80 42 183 42 204 0 11 6 35 14 53 8 18 28 78 45 133 18 55 38 114 45 130 8 17 22 50 31 75 9 25 21 52 26 60 5 8 14 26 20 40 41 96 160 305 211 371 15 20 28 40 28 43 0 9 116 160 164 214 141 158 149 166 310 310 63 56 202 162 214 162 4 0 21 14 37 30 16 17 34 30 40 30 7 0 31 14 53 30 23 17 44 30 48 30 3 0 39 20 80 45 40 25 76 45 78 45 3 0 42 17 88 39 46 21 108 49 138 61 30 12 69 28 85 35 17 7 41 16 55 18 14 3 52 15 85 27 33 11 92 28 130 36 68 14 88 19 185 42 92 23 292 37 515 37 306 0 444 -15 641 -71 67 -19 86 -18 116 6 14 11 122 84 239 163 118 79 237 159 264 177 28 19 53 38 56 42 3 5 20 17 38 26 35 19 233 153 241 163 3 3 33 24 66 45 87 56 278 185 284 192 3 4 21 16 40 26 19 11 51 31 70 46 19 14 52 37 73 49 20 12 37 27 37 32 0 5 5 9 12 9 9 0 167 103 203 132 34 29 117 75 160 89 67 23 181 23 256 2z"/> 
 <path d="M2945 5349 c-94 -23 -150 -45 -186 -71 -21 -15 -42 -28 -47 -28 -10 0 -80 -75 -117 -125 -42 -56 -65 -100 -65 -123 0 -10 -7 -34 -16 -52 -13 -24 -17 -60 -17 -139 1 -114 21 -191 77 -284 39 -66 173 -197 201 -197 5 0 33 -12 62 -26 72 -33 160 -47 256 -40 72 6 95 13 187 55 47 22 128 81 166 122 38 42 94 131 94 150 0 8 6 23 14 34 29 43 45 224 26 290 -41 139 -75 200 -154 279 -78 79 -175 134 -261 148 -83 14 -178 17 -220 7z"/> 
 <path d="M5655 5349 c-169 -42 -273 -112 -358 -244 -81 -124 -108 -263 -78 -405 61 -288 340 -480 627 -432 167 28 326 153 406 319 l43 88 0 135 c0 127 -2 138 -27 191 -16 31 -28 59 -28 64 0 4 -14 26 -32 49 -103 135 -197 200 -328 227 -71 15 -181 19 -225 8z"/> 
 <path d="M3190 3821 c-93 -38 -130 -94 -196 -291 -25 -77 -25 -309 0 -395 43 -144 91 -242 164 -334 43 -54 173 -181 186 -181 5 0 17 -6 25 -14 44 -37 138 -80 261 -117 93 -27 327 -27 420 0 97 29 142 47 195 77 l47 26 47 -25 c51 -28 104 -49 201 -78 85 -25 327 -27 411 -4 68 20 199 74 220 92 8 7 19 13 23 13 15 0 124 87 178 143 77 79 129 157 172 258 51 120 66 200 66 344 0 143 -20 243 -68 345 -62 129 -188 189 -304 143 -57 -22 -86 -45 -125 -100 -31 -43 -33 -52 -33 -126 0 -46 6 -92 14 -110 36 -82 44 -164 22 -242 -27 -94 -41 -120 -99 -178 -92 -93 -204 -128 -334 -106 -92 16 -117 29 -220 116 -41 36 -128 73 -168 73 -44 0 -129 -39 -177 -81 -74 -65 -131 -95 -206 -107 -78 -13 -186 -1 -242 28 -126 65 -211 208 -210 351 1 45 25 146 40 164 7 8 12 45 13 82 0 52 -5 78 -23 111 -31 58 -81 104 -138 124 -60 22 -106 22 -162 -1z"/> 
 </g> 
 </svg> 