<?xml version="1.0" standalone="no"?>
<!DOCTYPE svg PUBLIC "-//W3C//DTD SVG 1.0//EN" "http://www.w3.org/TR/2001/REC-SVG-20010904/DTD/svg10.dtd">
<svg xmlns="http://www.w3.org/2000/svg" xmlns:xlink="http://www.w3.org/1999/xlink" id="body_1" width="500" height="501">

<g transform="matrix(1.664452 0 0 1.664452 0.66444993 -0)" fill="cyan">
	<g transform="matrix(0.1 0 -0 -0.1 0 301)">
        
        <path d="M563 2606C 506 2580 488 2513 510 2403C 515 2377 522 2335 525 2310C 546 2148 550 2113 554 2095C 556 2084 561 2051 565 2023C 573 1965 581 1959 608 1992C 705 2113 859 2242 989 2313C 1018 2328 1038 2345 1035 2350C 1029 2359 803 2515 698 2582C 644 2617 604 2624 563 2606z" stroke="none" fill-rule="nonzero" />
        <path d="M2336 2604C 2327 2596 2320 2591 2320 2595C 2320 2598 2290 2579 2253 2553C 2215 2527 2140 2476 2085 2438C 1949 2346 1936 2336 1932 2328C 1930 2323 1924 2320 1918 2320C 1912 2320 1878 2299 1841 2273C 1767 2220 1776 2221 1549 2235C 1466 2240 1402 2239 1358 2231C 1291 2220 1170 2183 1115 2159C 1060 2134 960 2069 960 2058C 960 2052 957 2049 954 2053C 940 2066 798 1924 741 1840C 702 1783 641 1660 622 1600C 599 1529 580 1402 580 1318C 580 1182 604 1076 665 944C 773 711 934 559 1175 462C 1286 417 1349 407 1505 407C 1637 408 1665 411 1743 434C 1986 506 2172 650 2293 859C 2357 968 2399 1095 2418 1235C 2426 1298 2411 1473 2391 1545C 2378 1594 2377 1671 2390 1727C 2400 1768 2423 1914 2440 2045C 2450 2117 2475 2294 2486 2365C 2507 2502 2507 2516 2495 2546C 2469 2610 2376 2644 2336 2604zM1097 1785C 1170 1754 1210 1693 1210 1610C 1210 1489 1122 1405 1006 1413C 840 1425 762 1618 874 1739C 891 1757 919 1778 935 1786C 976 1804 1053 1803 1097 1785zM2036 1767C 2088 1732 2113 1678 2112 1605C 2112 1535 2086 1483 2035 1448C 1944 1384 1802 1415 1753 1509C 1713 1587 1726 1697 1781 1746C 1829 1789 1862 1800 1930 1797C 1981 1795 2004 1788 2036 1767zM1151 1277C 1182 1253 1189 1225 1183 1149C 1178 1079 1179 1072 1202 1047C 1216 1032 1242 1015 1259 1009C 1288 999 1298 1001 1353 1030C 1424 1067 1468 1067 1520 1029C 1561 998 1622 999 1655 1030C 1690 1063 1704 1113 1691 1152C 1673 1202 1678 1230 1709 1261C 1741 1292 1780 1299 1824 1279C 1886 1251 1907 1083 1860 986C 1795 851 1644 784 1494 825C 1433 842 1426 842 1368 825C 1266 797 1156 820 1079 888C 977 978 950 1169 1026 1260C 1047 1285 1059 1290 1093 1290C 1116 1290 1142 1284 1151 1277z" stroke="none" fill-rule="nonzero" />
        <path d="M952 1767C 934 1762 906 1742 890 1724C 822 1646 828 1552 906 1480C 947 1442 953 1440 1010 1440C 1082 1440 1119 1457 1156 1506C 1192 1552 1200 1631 1175 1680C 1133 1762 1044 1797 952 1767z" stroke="none" fill-rule="nonzero" />
        <path d="M1840 1757C 1741 1705 1720 1558 1802 1484C 1840 1449 1865 1440 1924 1440C 2026 1440 2084 1497 2089 1603C 2092 1677 2063 1727 1998 1759C 1941 1786 1894 1786 1840 1757z" stroke="none" fill-rule="nonzero" />
        <path d="M1047 1252C 1021 1223 1010 1182 1010 1109C 1010 972 1098 868 1235 841C 1265 835 1301 835 1323 840C 1343 844 1360 846 1360 844C 1360 841 1377 848 1398 859C 1432 876 1438 877 1464 863C 1479 855 1504 846 1519 844C 1533 842 1555 838 1567 835C 1595 829 1673 847 1720 871C 1830 926 1889 1072 1852 1195C 1835 1252 1828 1260 1789 1266C 1764 1270 1748 1267 1731 1253C 1707 1233 1706 1228 1716 1123C 1722 1062 1722 1062 1681 1021C 1644 984 1635 980 1591 980C 1552 980 1535 986 1505 1010C 1463 1043 1411 1050 1389 1024C 1350 976 1263 966 1209 1003C 1152 1042 1143 1077 1163 1194C 1173 1253 1087 1296 1047 1252z" stroke="none" fill-rule="nonzero" />
	</g>
</g>
</svg>