<?xml version="1.0" standalone="no"?>
<!DOCTYPE svg PUBLIC "-//W3C//DTD SVG 1.0//EN" "http://www.w3.org/TR/2001/REC-SVG-20010904/DTD/svg10.dtd">
<svg xmlns="http://www.w3.org/2000/svg" xmlns:xlink="http://www.w3.org/1999/xlink" id="body_1" width="500" height="502">

<g viewBox="0 0 500 502"> 
        <g transform="matrix(1.664452 0 0 1.664452 0.66444993 -0)">
                <g transform="matrix(0.1 0 -0 -0.1 0 301)" viewBox="0 0 500 502">
                <path fill="cyan" stroke="cyan" fill-rule="nonzero" stroke-width="140" d="M563 2606C 506 2580 488 2513 510 2403C 515 2377 522 2335 525 2310C 546 2148 550 2113 554 2095C 556 2084 561 2051 565 2023C 573 1965 581 1959 608 1992C 705 2113 859 2242 989 2313C 1018 2328 1038 2345 1035 2350C 1029 2359 803 2515 698 2582C 644 2617 604 2624 563 2606z" />
                <path fill="cyan" stroke="cyan" fill-rule="nonzero" stroke-width="80" d="M2336 2604C 2327 2596 2320 2591 2320 2595C 2320 2598 2290 2579 2253 2553C 2215 2527 2140 2476 2085 2438C 1949 2346 1936 2336 1932 2328C 1930 2323 1924 2320 1918 2320C 1912 2320 1878 2299 1841 2273C 1767 2220 1776 2221 1549 2235C 1466 2240 1402 2239 1358 2231C 1291 2220 1170 2183 1115 2159C 1060 2134 960 2069 960 2058C 960 2052 957 2049 954 2053C 940 2066 798 1924 741 1840C 702 1783 641 1660 622 1600C 599 1529 580 1402 580 1318C 580 1182 604 1076 665 944C 773 711 934 559 1175 462C 1286 417 1349 407 1505 407C 1637 408 1665 411 1743 434C 1986 506 2172 650 2293 859C 2357 968 2399 1095 2418 1235C 2426 1298 2411 1473 2391 1545C 2378 1594 2377 1671 2390 1727C 2400 1768 2423 1914 2440 2045C 2450 2117 2475 2294 2486 2365C 2507 2502 2507 2516 2495 2546C 2469 2610 2376 2644 2336 2604zM1097 1785C 1170 1754 1210 1693 1210 1610C 1210 1489 1122 1405 1006 1413C 840 1425 762 1618 874 1739C 891 1757 919 1778 935 1786C 976 1804 1053 1803 1097 1785zM2036 1767C 2088 1732 2113 1678 2112 1605C 2112 1535 2086 1483 2035 1448C 1944 1384 1802 1415 1753 1509C 1713 1587 1726 1697 1781 1746C 1829 1789 1862 1800 1930 1797C 1981 1795 2004 1788 2036 1767zM1151 1277C 1182 1253 1189 1225 1183 1149C 1178 1079 1179 1072 1202 1047C 1216 1032 1242 1015 1259 1009C 1288 999 1298 1001 1353 1030C 1424 1067 1468 1067 1520 1029C 1561 998 1622 999 1655 1030C 1690 1063 1704 1113 1691 1152C 1673 1202 1678 1230 1709 1261C 1741 1292 1780 1299 1824 1279C 1886 1251 1907 1083 1860 986C 1795 851 1644 784 1494 825C 1433 842 1426 842 1368 825C 1266 797 1156 820 1079 888C 977 978 950 1169 1026 1260C 1047 1285 1059 1290 1093 1290C 1116 1290 1142 1284 1151 1277z"/>
                </g>
        </g> 

        <g transform="matrix(0.5555556 0 0 0.5555556 -0 0.33331978)">
                <g transform="matrix(0.1 0 -0 -0.1 0 903)" viewBox="0 0 500 502">
                <path d="M7065 8364C 6936 8350 6783 8291 6657 8206C 6623 8182 6550 8133 6495 8095C 6440 8058 6298 7962 6180 7882C 5969 7739 5758 7596 5610 7495C 5569 7467 5443 7381 5331 7305L5331 7305L5126 7167L5061 7179C 4841 7215 4765 7221 4496 7221C 4232 7221 4079 7210 3927 7180C 3853 7165 3842 7167 3787 7208C 3759 7228 3728 7250 3718 7255C 3709 7261 3662 7292 3615 7325C 3567 7358 3518 7392 3505 7400C 3492 7408 3408 7465 3318 7526C 3228 7587 3085 7684 3000 7741C 2915 7799 2810 7871 2767 7901C 2724 7931 2681 7960 2672 7965C 2662 7971 2639 7986 2620 8000C 2601 8014 2578 8030 2569 8035C 2559 8041 2481 8093 2393 8151C 2255 8244 2209 8270 2115 8311C 2014 8356 1782 8373 1654 8346C 1335 8278 1103 8066 1003 7750C 979 7673 976 7651 976 7510C 976 7410 982 7321 993 7260C 1002 7208 1016 7113 1025 7050C 1034 6987 1047 6895 1055 6845C 1063 6796 1076 6703 1085 6640C 1094 6577 1107 6482 1115 6430C 1143 6245 1159 6134 1175 6015C 1184 5949 1198 5857 1205 5810C 1213 5763 1222 5703 1225 5675C 1228 5648 1235 5598 1240 5565C 1245 5532 1256 5456 1265 5395C 1274 5335 1285 5258 1290 5225C 1341 4893 1345 4842 1327 4783C 1319 4757 1305 4697 1295 4650C 1286 4603 1272 4536 1265 4500C 1238 4369 1225 4190 1225 3950C 1225 3653 1235 3552 1296 3250C 1319 3140 1382 2920 1416 2835C 1425 2813 1439 2777 1447 2755C 1487 2652 1549 2518 1619 2388C 1663 2306 1670 2293 1718 2222C 1741 2187 1760 2157 1760 2155C 1760 2150 1850 2021 1885 1976C 2162 1618 2494 1327 2868 1112C 2956 1062 3197 945 3275 915C 3314 901 3361 882 3380 874C 3504 824 3780 753 3955 726C 4371 662 4609 662 5025 726C 5192 752 5415 807 5508 846C 5526 854 5547 860 5555 860C 5563 860 5584 866 5602 874C 5620 882 5690 911 5757 940C 5992 1037 6262 1190 6430 1320C 6674 1508 6818 1645 7000 1860C 7075 1947 7180 2088 7215 2148C 7221 2157 7243 2192 7265 2225C 7287 2258 7310 2294 7315 2305C 7321 2316 7346 2361 7370 2405C 7426 2509 7424 2505 7455 2575C 7511 2700 7517 2716 7535 2760C 7544 2785 7557 2816 7562 2830C 7602 2931 7660 3135 7685 3260C 7694 3307 7708 3374 7715 3410C 7770 3678 7770 4211 7714 4500C 7681 4672 7667 4737 7654 4779C 7636 4835 7636 4865 7654 4965C 7662 5009 7676 5099 7685 5165C 7694 5231 7707 5323 7715 5370C 7722 5417 7736 5511 7745 5580C 7754 5649 7767 5741 7775 5785C 7783 5829 7791 5885 7794 5910C 7796 5935 7803 5987 7809 6025C 7815 6064 7827 6145 7835 6205C 7844 6266 7857 6356 7865 6405C 7873 6455 7886 6549 7895 6615C 7904 6681 7917 6773 7925 6820C 7932 6867 7946 6959 7955 7025C 7964 7091 7979 7188 7988 7240C 8000 7308 8005 7388 8004 7520C 8004 7697 8002 7708 7976 7775C 7961 7814 7945 7857 7940 7872C 7925 7920 7825 8063 7766 8122C 7663 8224 7522 8305 7386 8340C 7315 8359 7141 8372 7065 8364zM1906 7884C 1974 7870 1997 7859 2127 7772C 2207 7719 2282 7668 2295 7660C 2308 7652 2377 7605 2450 7555C 2522 7506 2592 7458 2605 7450C 2618 7442 2664 7411 2707 7381C 2858 7276 3022 7165 3084 7125C 3119 7103 3163 7072 3183 7057C 3203 7042 3224 7030 3230 7030C 3259 7030 3230 6996 3185 6978C 3139 6959 3076 6930 3040 6911C 3032 6907 3009 6895 2990 6885C 2873 6825 2823 6797 2794 6775C 2776 6761 2759 6750 2755 6750C 2743 6750 2590 6647 2590 6639C 2590 6634 2585 6630 2580 6630C 2566 6630 2470 6558 2470 6548C 2470 6544 2465 6540 2459 6540C 2452 6540 2428 6523 2405 6503C 2382 6482 2330 6436 2289 6400C 2162 6289 2074 6195 1888 5970C 1847 5921 1810 5871 1810 5866C 1810 5862 1800 5849 1789 5837C 1777 5825 1762 5802 1754 5785C 1747 5769 1731 5744 1720 5730C 1703 5709 1699 5707 1690 5720C 1685 5728 1680 5755 1680 5780C 1680 5805 1673 5850 1665 5880C 1657 5910 1650 5953 1650 5975C 1650 5997 1645 6031 1640 6050C 1634 6069 1625 6130 1620 6184C 1609 6292 1597 6369 1574 6470C 1566 6506 1560 6554 1560 6577C 1560 6621 1523 6885 1514 6910C 1510 6918 1504 6959 1500 7000C 1485 7137 1460 7315 1450 7344C 1444 7360 1440 7427 1440 7494C 1441 7610 1442 7617 1473 7677C 1530 7786 1607 7851 1715 7881C 1793 7903 1815 7903 1906 7884zM7291 7883C 7370 7860 7461 7779 7510 7688C 7544 7626 7544 7623 7544 7505C 7544 7439 7538 7363 7532 7335C 7520 7288 7498 7132 7480 6975C 7476 6937 7467 6880 7461 6850C 7441 6751 7420 6595 7420 6548C 7420 6522 7415 6489 7409 6473C 7403 6458 7395 6416 7390 6380C 7364 6173 7358 6126 7344 6040C 7336 5988 7323 5907 7315 5860C 7299 5768 7282 5636 7270 5525C 7266 5487 7258 5433 7252 5405C 7234 5325 7210 5146 7210 5090C 7210 5062 7206 5030 7200 5020C 7195 5010 7185 4956 7179 4900C 7169 4808 7170 4792 7188 4732C 7199 4695 7216 4627 7225 4580C 7234 4533 7246 4477 7252 4455C 7271 4380 7280 4265 7286 4015C 7292 3769 7283 3592 7259 3490C 7235 3389 7210 3263 7210 3240C 7210 3226 7203 3206 7195 3196C 7187 3185 7180 3164 7180 3150C 7180 3136 7176 3120 7172 3115C 7167 3109 7153 3071 7140 3030C 7127 2989 7111 2944 7105 2930C 7098 2916 7084 2885 7074 2860C 6998 2667 6796 2328 6681 2200C 6659 2175 6640 2151 6640 2146C 6640 2135 6273 1770 6261 1770C 6257 1770 6240 1759 6224 1745C 6188 1713 6018 1597 5930 1543C 5869 1506 5748 1443 5638 1391C 5612 1379 5588 1365 5585 1359C 5581 1354 5568 1350 5556 1350C 5543 1350 5502 1337 5464 1321C 5426 1305 5368 1284 5335 1275C 5302 1266 5255 1252 5230 1245C 5116 1211 5071 1200 5049 1200C 5036 1200 4989 1194 4945 1186C 4669 1136 4422 1125 4220 1156C 3961 1194 3821 1221 3745 1246C 3723 1253 3678 1266 3645 1276C 3541 1305 3384 1367 3275 1423C 3140 1492 3077 1525 3038 1548C 2980 1582 2795 1711 2756 1745C 2740 1759 2723 1770 2719 1770C 2709 1770 2350 2126 2335 2151C 2330 2160 2304 2194 2277 2226C 2218 2300 2093 2486 2050 2565C 1986 2682 1974 2706 1957 2745C 1948 2767 1936 2792 1931 2800C 1922 2815 1868 2946 1845 3010C 1818 3087 1771 3249 1755 3325C 1746 3369 1732 3432 1725 3465C 1710 3529 1706 3570 1691 3801C 1678 3988 1699 4341 1728 4455C 1749 4535 1770 4638 1770 4659C 1770 4670 1776 4694 1784 4712C 1792 4730 1812 4790 1829 4845C 1847 4900 1867 4959 1874 4975C 1882 4992 1896 5025 1905 5050C 1914 5075 1926 5102 1931 5110C 1936 5118 1945 5136 1951 5150C 1992 5246 2111 5455 2162 5521C 2177 5541 2190 5561 2190 5564C 2190 5573 2306 5724 2354 5778C 2495 5936 2503 5944 2664 6088C 2727 6144 2866 6250 2878 6250C 2882 6250 2899 6264 2915 6280C 2931 6297 2949 6310 2955 6310C 2962 6310 2986 6324 3008 6340C 3031 6357 3052 6370 3056 6370C 3059 6370 3095 6390 3136 6415C 3176 6440 3212 6460 3214 6460C 3217 6460 3256 6477 3302 6499C 3348 6520 3410 6548 3440 6560C 3470 6572 3509 6588 3525 6595C 3542 6602 3566 6611 3580 6613C 3594 6616 3632 6628 3665 6640C 3698 6651 3757 6668 3795 6676C 3863 6690 3883 6695 3980 6718C 4072 6741 4272 6755 4495 6755C 4801 6755 4939 6740 5136 6684C 5203 6665 5222 6666 5252 6690C 5266 6701 5374 6774 5491 6853C 5609 6932 5728 7012 5755 7030C 5783 7049 5808 7068 5811 7072C 5814 7077 5831 7089 5849 7098C 5884 7117 6082 7251 6090 7261C 6093 7264 6123 7285 6156 7306C 6243 7362 6434 7491 6440 7498C 6443 7502 6461 7514 6480 7524C 6499 7535 6531 7555 6550 7570C 6569 7584 6602 7607 6623 7619C 6643 7631 6660 7646 6660 7651C 6660 7656 6665 7660 6672 7660C 6681 7660 6839 7763 6875 7792C 6909 7821 6992 7867 7035 7881C 7102 7904 7216 7904 7291 7883z" stroke="none" fill="#000000" fill-rule="nonzero" />
                <path d="M2945 5349C 2851 5326 2795 5304 2759 5278C 2738 5263 2717 5250 2712 5250C 2702 5250 2632 5175 2595 5125C 2553 5069 2530 5025 2530 5002C 2530 4992 2523 4968 2514 4950C 2501 4926 2497 4890 2497 4811C 2498 4697 2518 4620 2574 4527C 2613 4461 2747 4330 2775 4330C 2780 4330 2808 4318 2837 4304C 2909 4271 2997 4257 3093 4264C 3165 4270 3188 4277 3280 4319C 3327 4341 3408 4400 3446 4441C 3484 4483 3540 4572 3540 4591C 3540 4599 3546 4614 3554 4625C 3583 4668 3599 4849 3580 4915C 3539 5054 3505 5115 3426 5194C 3348 5273 3251 5328 3165 5342C 3082 5356 2987 5359 2945 5349z" stroke="none" fill="#000000" fill-rule="nonzero" />
                <path d="M5655 5349C 5486 5307 5382 5237 5297 5105C 5216 4981 5189 4842 5219 4700C 5280 4412 5559 4220 5846 4268C 6013 4296 6172 4421 6252 4587L6252 4587L6295 4675L6295 4810C 6295 4937 6293 4948 6268 5001C 6252 5032 6240 5060 6240 5065C 6240 5069 6226 5091 6208 5114C 6105 5249 6011 5314 5880 5341C 5809 5356 5699 5360 5655 5349z" stroke="none" fill="#000000" fill-rule="nonzero" />
                <path d="M3190 3821C 3097 3783 3060 3727 2994 3530C 2969 3453 2969 3221 2994 3135C 3037 2991 3085 2893 3158 2801C 3201 2747 3331 2620 3344 2620C 3349 2620 3361 2614 3369 2606C 3413 2569 3507 2526 3630 2489C 3723 2462 3957 2462 4050 2489C 4147 2518 4192 2536 4245 2566L4245 2566L4292 2592L4339 2567C 4390 2539 4443 2518 4540 2489C 4625 2464 4867 2462 4951 2485C 5019 2505 5150 2559 5171 2577C 5179 2584 5190 2590 5194 2590C 5209 2590 5318 2677 5372 2733C 5449 2812 5501 2890 5544 2991C 5595 3111 5610 3191 5610 3335C 5610 3478 5590 3578 5542 3680C 5480 3809 5354 3869 5238 3823C 5181 3801 5152 3778 5113 3723C 5082 3680 5080 3671 5080 3597C 5080 3551 5086 3505 5094 3487C 5130 3405 5138 3323 5116 3245C 5089 3151 5075 3125 5017 3067C 4925 2974 4813 2939 4683 2961C 4591 2977 4566 2990 4463 3077C 4422 3113 4335 3150 4295 3150C 4251 3150 4166 3111 4118 3069C 4044 3004 3987 2974 3912 2962C 3834 2949 3726 2961 3670 2990C 3544 3055 3459 3198 3460 3341C 3461 3386 3485 3487 3500 3505C 3507 3513 3512 3550 3513 3587C 3513 3639 3508 3665 3490 3698C 3459 3756 3409 3802 3352 3822C 3292 3844 3246 3844 3190 3821z" stroke="none" fill="#000000" fill-rule="nonzero" />
                </g>
        </g>
</g>  

</svg>